<svg xmlns="http://www.w3.org/2000/svg" width="26.247" height="35" viewBox="0 0 26.247 35">
  <path id="Icon_awesome-receipt" data-name="Icon awesome-receipt" d="M24.5.217,21.873,3.279,18.154.217a1.087,1.087,0,0,0-1.312,0L13.124,3.279,9.405.217a1.087,1.087,0,0,0-1.312,0L4.375,3.279,1.75.217A1.093,1.093,0,0,0,0,1.092V33.9a1.093,1.093,0,0,0,1.75.875l2.625-3.062,3.718,3.062a1.087,1.087,0,0,0,1.312,0l3.718-3.062,3.718,3.062a1.087,1.087,0,0,0,1.312,0l3.718-3.062L24.5,34.776a1.094,1.094,0,0,0,1.75-.875V1.092A1.093,1.093,0,0,0,24.5.217ZM21.873,24.6a.548.548,0,0,1-.547.547H4.921a.548.548,0,0,1-.547-.547V23.511a.548.548,0,0,1,.547-.547h16.4a.548.548,0,0,1,.547.547Zm0-6.562a.548.548,0,0,1-.547.547H4.921a.548.548,0,0,1-.547-.547V16.949a.548.548,0,0,1,.547-.547h16.4a.548.548,0,0,1,.547.547Zm0-6.562a.548.548,0,0,1-.547.547H4.921a.548.548,0,0,1-.547-.547V10.388a.548.548,0,0,1,.547-.547h16.4a.548.548,0,0,1,.547.547Z" transform="translate(0 0.004)" fill="#fff"/>
</svg>
