<svg xmlns="http://www.w3.org/2000/svg" width="35" height="35" viewBox="0 0 35 35">
  <path id="Icon_awesome-plus-circle" data-name="Icon awesome-plus-circle" d="M18.266.766a17.5,17.5,0,1,0,17.5,17.5A17.5,17.5,0,0,0,18.266.766ZM28.427,20.241a.849.849,0,0,1-.847.847H21.088V27.58a.849.849,0,0,1-.847.847H16.29a.849.849,0,0,1-.847-.847V21.088H8.951a.849.849,0,0,1-.847-.847V16.29a.849.849,0,0,1,.847-.847h6.492V8.951A.849.849,0,0,1,16.29,8.1h3.952a.849.849,0,0,1,.847.847v6.492H27.58a.849.849,0,0,1,.847.847Z" transform="translate(-0.766 -0.766)" fill="#fff"/>
</svg>
