<svg xmlns="http://www.w3.org/2000/svg" width="35" height="26.25" viewBox="0 0 35 26.25">
  <path id="Icon_awesome-envelope" data-name="Icon awesome-envelope" d="M34.337,13.168a.412.412,0,0,1,.663.321V27.469a3.282,3.282,0,0,1-3.281,3.281H3.281A3.282,3.282,0,0,1,0,27.469V13.5a.409.409,0,0,1,.663-.321c1.531,1.189,3.562,2.7,10.534,7.766,1.442,1.053,3.876,3.268,6.3,3.254,2.44.021,4.922-2.242,6.31-3.254C30.782,15.875,32.806,14.357,34.337,13.168ZM17.5,22c1.586.027,3.869-2,5.018-2.83,9.071-6.583,9.762-7.157,11.854-8.8A1.636,1.636,0,0,0,35,9.08v-1.3A3.282,3.282,0,0,0,31.719,4.5H3.281A3.282,3.282,0,0,0,0,7.781v1.3a1.646,1.646,0,0,0,.629,1.292c2.092,1.634,2.782,2.215,11.854,8.8C13.631,20,15.914,22.027,17.5,22Z" transform="translate(0 -4.5)" fill="#fff" opacity="0.91"/>
</svg>
