<svg xmlns="http://www.w3.org/2000/svg" width="26.25" height="35" viewBox="0 0 26.25 35">
  <path id="Icon_awesome-clipboard-list" data-name="Icon awesome-clipboard-list" d="M22.969,4.375H17.5a4.375,4.375,0,0,0-8.75,0H3.281A3.282,3.282,0,0,0,0,7.656V31.719A3.282,3.282,0,0,0,3.281,35H22.969a3.282,3.282,0,0,0,3.281-3.281V7.656A3.282,3.282,0,0,0,22.969,4.375ZM6.563,28.984A1.641,1.641,0,1,1,8.2,27.344,1.637,1.637,0,0,1,6.563,28.984Zm0-6.562A1.641,1.641,0,1,1,8.2,20.781,1.637,1.637,0,0,1,6.563,22.422Zm0-6.562A1.641,1.641,0,1,1,8.2,14.219,1.637,1.637,0,0,1,6.563,15.859ZM13.125,2.734a1.641,1.641,0,1,1-1.641,1.641A1.637,1.637,0,0,1,13.125,2.734Zm8.75,25.156a.548.548,0,0,1-.547.547H11.484a.548.548,0,0,1-.547-.547V26.8a.548.548,0,0,1,.547-.547h9.844a.548.548,0,0,1,.547.547Zm0-6.562a.548.548,0,0,1-.547.547H11.484a.548.548,0,0,1-.547-.547V20.234a.548.548,0,0,1,.547-.547h9.844a.548.548,0,0,1,.547.547Zm0-6.562a.548.548,0,0,1-.547.547H11.484a.548.548,0,0,1-.547-.547V13.672a.548.548,0,0,1,.547-.547h9.844a.548.548,0,0,1,.547.547Z" fill="#fff"/>
</svg>
