<svg xmlns="http://www.w3.org/2000/svg" viewBox="0 0 36.13 22.95">
  <path id="Path_40" data-name="Path 40" d="M35.566,6.3,20.06.37a5.552,5.552,0,0,0-3.988,0L.566,6.3a.882.882,0,0,0,0,1.647L7.56,10.623v6.294A.87.87,0,0,0,8,17.682a21.647,21.647,0,0,0,10.064,2.482A21.646,21.646,0,0,0,28.13,17.682a.87.87,0,0,0,.441-.765V10.623l3.088-1.176V16.77a2.594,2.594,0,0,0-1.723,2.441v2.853a.882.882,0,0,0,.882.882h3.453a.882.882,0,0,0,.882-.882V19.212a2.606,2.606,0,0,0-1.73-2.441V8.764l2.141-.818a.882.882,0,0,0,0-1.647ZM33.389,21.188H31.7V19.211a.847.847,0,0,1,1.688,0ZM16.7,2.017a3.829,3.829,0,0,1,2.73,0L32.771,7.123,19.419,12.229a3.829,3.829,0,0,1-2.73,0L3.36,7.123ZM26.806,16.382A20.893,20.893,0,0,1,18.066,18.4a20.892,20.892,0,0,1-8.741-2.018V11.294l6.747,2.582h0a5.552,5.552,0,0,0,3.988,0l6.747-2.582Z" transform="translate(0)" fill="#fff"/>
</svg>