<svg xmlns="http://www.w3.org/2000/svg" xmlns:xlink="http://www.w3.org/1999/xlink" width="53" height="53" viewBox="0 0 53 53">
  <defs>
    <filter id="Icon_awesome-user-circle" x="0" y="0" width="53" height="53" filterUnits="userSpaceOnUse">
      <feOffset dy="3" input="SourceAlpha"/>
      <feGaussianBlur stdDeviation="3" result="blur"/>
      <feFlood flood-opacity="0.161"/>
      <feComposite operator="in" in2="blur"/>
      <feComposite in="SourceGraphic"/>
    </filter>
  </defs>
  <g transform="matrix(1, 0, 0, 1, 0, 0)" filter="url(#Icon_awesome-user-circle)">
    <path id="Icon_awesome-user-circle-2" data-name="Icon awesome-user-circle" d="M17.5.766A17.5,17.5,0,1,0,35,18.266,17.5,17.5,0,0,0,17.5.766Zm0,6.774a6.21,6.21,0,1,1-6.21,6.21A6.21,6.21,0,0,1,17.5,7.54Zm0,24.274A13.522,13.522,0,0,1,7.162,27a7.868,7.868,0,0,1,6.951-4.22,1.726,1.726,0,0,1,.5.078,9.343,9.343,0,0,0,2.886.487,9.307,9.307,0,0,0,2.886-.487,1.727,1.727,0,0,1,.5-.078A7.868,7.868,0,0,1,27.838,27,13.522,13.522,0,0,1,17.5,31.814Z" transform="translate(9 5.23)" fill="#fff"/>
  </g>
</svg>
