<svg xmlns="http://www.w3.org/2000/svg" width="35" height="23.333" viewBox="0 0 35 23.333">
  <path id="Icon_awesome-eye" data-name="Icon awesome-eye" d="M34.789,15.28A19.489,19.489,0,0,0,17.5,4.5,19.492,19.492,0,0,0,.211,15.28a1.966,1.966,0,0,0,0,1.774A19.489,19.489,0,0,0,17.5,27.833a19.492,19.492,0,0,0,17.289-10.78A1.966,1.966,0,0,0,34.789,15.28ZM17.5,24.917a8.75,8.75,0,1,1,8.75-8.75A8.75,8.75,0,0,1,17.5,24.917Zm0-14.583a5.791,5.791,0,0,0-1.538.23A2.908,2.908,0,0,1,11.9,14.629a5.82,5.82,0,1,0,5.6-4.3Z" transform="translate(0 -4.5)" fill="#fff" opacity="0.91"/>
</svg>
