<svg xmlns="http://www.w3.org/2000/svg" width="35" height="35" viewBox="0 0 35 35">
  <path id="Icon_awesome-font" data-name="Icon awesome-font" d="M33.75,34.375H31.921L21.709,6.07a2.5,2.5,0,0,0-2.367-1.695H15.658a2.5,2.5,0,0,0-2.367,1.7L3.079,34.375H1.25A1.25,1.25,0,0,0,0,35.625v2.5a1.25,1.25,0,0,0,1.25,1.25h10a1.25,1.25,0,0,0,1.25-1.25v-2.5a1.25,1.25,0,0,0-1.25-1.25H9.72l1.82-5H23.459l1.82,5H23.75a1.25,1.25,0,0,0-1.25,1.25v2.5a1.25,1.25,0,0,0,1.25,1.25h10A1.25,1.25,0,0,0,35,38.125v-2.5A1.25,1.25,0,0,0,33.75,34.375ZM13.816,23.125,17.5,13.009l3.684,10.116Z" transform="translate(0 -4.375)" fill="#fff"/>
</svg>
