<svg xmlns="http://www.w3.org/2000/svg" width="35.001" height="35" viewBox="0 0 35.001 35">
  <path id="Icon_awesome-magic" data-name="Icon awesome-magic" d="M15.313,6.563l1.094-2.188,2.188-1.094L16.407,2.188,15.313,0,14.219,2.188,12.031,3.281l2.188,1.094ZM5.469,10.938,7.291,7.292l3.646-1.823L7.291,3.646,5.469,0,3.646,3.646,0,5.469,3.646,7.292Zm24.063,8.75-1.822,3.646-3.646,1.823,3.646,1.823,1.822,3.646,1.822-3.646L35,25.157l-3.646-1.823ZM34.359,6.442l-5.8-5.8a2.186,2.186,0,0,0-3.093,0L.641,25.466a2.187,2.187,0,0,0,0,3.093l5.8,5.8a2.188,2.188,0,0,0,3.093,0L34.359,9.534a2.186,2.186,0,0,0,0-3.093Zm-9.787,7.467-3.48-3.48,5.92-5.92,3.48,3.48-5.92,5.92Z" fill="#fff"/>
</svg>
