<svg xmlns="http://www.w3.org/2000/svg" width="35" height="35" viewBox="0 0 35 35">
  <path id="Icon_awesome-chevron-circle-down" data-name="Icon awesome-chevron-circle-down" d="M35.563,18.063a17.5,17.5,0,1,1-17.5-17.5A17.5,17.5,0,0,1,35.563,18.063ZM19.262,26.1l9.561-9.561a1.687,1.687,0,0,0,0-2.392l-1.2-1.2a1.687,1.687,0,0,0-2.392,0l-7.169,7.169-7.169-7.169a1.687,1.687,0,0,0-2.392,0l-1.2,1.2a1.687,1.687,0,0,0,0,2.392L16.863,26.1A1.7,1.7,0,0,0,19.262,26.1Z" transform="translate(-0.563 -0.563)" fill="#fff"/>
</svg>
