<svg xmlns="http://www.w3.org/2000/svg" xmlns:xlink="http://www.w3.org/1999/xlink" viewBox="-0.5 -0.5 32.58 32.58">
  <defs>
    <clipPath id="clip-path">
      <rect id="Rectangle_751" data-name="Rectangle 751" width="31.577" height="31.577" fill="#fff" stroke="#fff" stroke-width="1"/>
    </clipPath>
  </defs>
  <g id="Group_141" data-name="Group 141" clip-path="url(#clip-path)">
    <path id="Path_41" data-name="Path 41" d="M373.467,137.4a.686.686,0,0,0-1.276.507,2.349,2.349,0,0,1-1.578,2.99.686.686,0,0,0,.3,1.34h0a3.711,3.711,0,0,0,2.557-4.838" transform="translate(-348.301 -128.907)" fill="#fff" stroke="#fff" stroke-width="1"/>
    <path id="Path_42" data-name="Path 42" d="M149.354,112.724a.687.687,0,0,0,.3-1.341,2.349,2.349,0,0,1-1.578-2.99.686.686,0,1,0-1.276-.507,3.711,3.711,0,0,0,2.557,4.838Z" transform="translate(-137.949 -101.131)" fill="#fff" stroke="#fff" stroke-width="1"/>
    <path id="Path_43" data-name="Path 43" d="M317.526,258.075a.686.686,0,0,0-.384.892,2.349,2.349,0,0,1-1.578,2.99.686.686,0,1,0,.3,1.34h0a3.711,3.711,0,0,0,2.557-4.838.686.686,0,0,0-.892-.384" transform="translate(-296.49 -242.844)" fill="#fff" stroke="#fff" stroke-width="1"/>
    <path id="Path_44" data-name="Path 44" d="M178.08,318.926a2.349,2.349,0,0,1-1.578-2.99.686.686,0,0,0-1.276-.507,3.711,3.711,0,0,0,2.557,4.838h0a.686.686,0,1,0,.3-1.34" transform="translate(-164.706 -296.462)" fill="#fff" stroke="#fff" stroke-width="1"/>
    <path id="Path_45" data-name="Path 45" d="M30.2,18.534a4.807,4.807,0,0,0-.193-1.347A8.239,8.239,0,0,0,25.645,4.446,6.867,6.867,0,0,0,15.788.919,6.866,6.866,0,0,0,5.932,4.446,8.239,8.239,0,0,0,1.7,17.363a5.5,5.5,0,0,0,1.07,5.512c-.013.154-.02.309-.02.464A5.491,5.491,0,0,0,8.237,28.83c.078,0,.156,0,.233-.005a4.119,4.119,0,0,0,7.318.909,4.119,4.119,0,0,0,7.318-.909c.077,0,.155.005.233.005a5.491,5.491,0,0,0,5.337-6.784A4.794,4.794,0,0,0,30.2,18.534M12.356,30.2a2.746,2.746,0,0,1-1.322-5.153.687.687,0,0,0-.662-1.2h0a4.118,4.118,0,0,0-2.134,3.61,4.119,4.119,0,0,1-4.119-4.119,4.172,4.172,0,0,1,.027-.469.688.688,0,0,0,.036-.252c0-.01,0-.021.005-.031a.686.686,0,0,0-.541-.8A4.119,4.119,0,0,1,9.12,15.774a.686.686,0,0,0,.753-1.148A5.493,5.493,0,0,0,2.418,16,6.865,6.865,0,0,1,6.427,5.734a.686.686,0,0,0,.678-.484,5.495,5.495,0,0,1,8-3.142v25.35A2.746,2.746,0,0,1,12.356,30.2m10.983-2.746a4.119,4.119,0,0,1-4.119-4.119.686.686,0,1,0-1.373,0,5.494,5.494,0,0,0,3.875,5.25,2.746,2.746,0,0,1-5.248-1.131h0V2.108a5.495,5.495,0,0,1,8,3.142.686.686,0,0,0,.678.484,6.865,6.865,0,0,1-1.81,13.487.686.686,0,1,0,0,1.373h0a8.206,8.206,0,0,0,5.491-2.1c0,.013,0,.025,0,.038a3.421,3.421,0,0,1-1.085,2.5.683.683,0,0,0-.529.908,4.122,4.122,0,0,1-3.877,5.513" fill="#fff" stroke="#fff" stroke-width="1"/>
  </g>
</svg>