<svg xmlns="http://www.w3.org/2000/svg" width="50.002" height="35" viewBox="0 0 50.002 35">
  <path id="Icon_awesome-box-open" data-name="Icon awesome-box-open" d="M33.258,19.25a3.787,3.787,0,0,1-3.234-1.828L25,9.094l-5.015,8.328a3.8,3.8,0,0,1-3.242,1.836A3.593,3.593,0,0,1,15.7,19.11L5,16.047V29.953a2.492,2.492,0,0,0,1.891,2.422L23.782,36.6a5.078,5.078,0,0,0,2.422,0l16.906-4.226A2.505,2.505,0,0,0,45,29.953V16.047L34.3,19.1A3.593,3.593,0,0,1,33.258,19.25Zm16.609-8.765L45.844,2.454a1.276,1.276,0,0,0-1.3-.7L25,4.251l7.164,11.882a1.284,1.284,0,0,0,1.445.57L49.07,12.29a1.287,1.287,0,0,0,.8-1.8ZM4.157,2.454.134,10.485a1.274,1.274,0,0,0,.789,1.8L16.383,16.7a1.284,1.284,0,0,0,1.445-.57L25,4.251,5.454,1.759a1.277,1.277,0,0,0-1.3.7Z" transform="translate(0.002 -1.748)" fill="#fff"/>
</svg>
