<svg xmlns="http://www.w3.org/2000/svg" width="43.75" height="35" viewBox="0 0 43.75 35">
  <path id="Icon_awesome-chalkboard-teacher" data-name="Icon awesome-chalkboard-teacher" d="M14.219,24.063a1.564,1.564,0,0,0-.483.075,9.018,9.018,0,0,1-2.8.472,9.025,9.025,0,0,1-2.8-.472,1.56,1.56,0,0,0-.482-.075A7.657,7.657,0,0,0,0,31.761,3.273,3.273,0,0,0,3.281,35H18.594a3.273,3.273,0,0,0,3.281-3.239A7.657,7.657,0,0,0,14.219,24.063Zm-3.281-2.187a6.563,6.563,0,1,0-6.563-6.563A6.562,6.562,0,0,0,10.937,21.875ZM40.469,0H14.219a3.341,3.341,0,0,0-3.281,3.39V6.563a8.651,8.651,0,0,1,4.375,1.217v-3.4H39.375V24.063H35V19.688H26.25v4.375H21.038a8.712,8.712,0,0,1,2.713,4.375H40.469a3.341,3.341,0,0,0,3.281-3.39V3.39A3.341,3.341,0,0,0,40.469,0Z" transform="translate(0)" fill="#fff"/>
</svg>
