<svg xmlns="http://www.w3.org/2000/svg" width="26.25" height="35" viewBox="0 0 26.25 35">
  <path id="Icon_awesome-file-upload" data-name="Icon awesome-file-upload" d="M15.313,9.3V0H1.641A1.637,1.637,0,0,0,0,1.641V33.359A1.637,1.637,0,0,0,1.641,35H24.609a1.637,1.637,0,0,0,1.641-1.641V10.938h-9.3A1.645,1.645,0,0,1,15.313,9.3Zm4.456,14.766H15.313v5.469a1.093,1.093,0,0,1-1.094,1.094H12.031a1.093,1.093,0,0,1-1.094-1.094V24.063H6.482a1.094,1.094,0,0,1-.77-1.87L12.3,15.651a1.166,1.166,0,0,1,1.643,0l6.591,6.542A1.093,1.093,0,0,1,19.768,24.063Zm6-16.885L19.079.479A1.639,1.639,0,0,0,17.917,0H17.5V8.75h8.75V8.333A1.635,1.635,0,0,0,25.771,7.178Z" fill="#fff" />
</svg>
