<svg xmlns="http://www.w3.org/2000/svg" width="30.625" height="35" viewBox="0 0 30.625 35">
  <path id="Icon_awesome-book" data-name="Icon awesome-book" d="M30.625,24.609V1.641A1.637,1.637,0,0,0,28.984,0H6.563A6.564,6.564,0,0,0,0,6.563V28.438A6.564,6.564,0,0,0,6.563,35H28.984a1.637,1.637,0,0,0,1.641-1.641V32.266a1.653,1.653,0,0,0-.608-1.278,15.245,15.245,0,0,1,0-5.106,1.629,1.629,0,0,0,.608-1.271ZM8.75,9.16a.411.411,0,0,1,.41-.41H23.652a.411.411,0,0,1,.41.41v1.367a.411.411,0,0,1-.41.41H9.16a.411.411,0,0,1-.41-.41Zm0,4.375a.411.411,0,0,1,.41-.41H23.652a.411.411,0,0,1,.41.41V14.9a.411.411,0,0,1-.41.41H9.16a.411.411,0,0,1-.41-.41Zm17.322,17.09H6.563a2.187,2.187,0,1,1,0-4.375h19.51A24.61,24.61,0,0,0,26.072,30.625Z" fill="#fff"/>
</svg>
